<svg width="16" height="18" viewBox="0 0 16 18" fill="none" xmlns="http://www.w3.org/2000/svg">
<path d="M12.5714 4.5C12.5714 2.01867 10.5207 0 8 0C5.47929 0 3.42857 2.01867 3.42857 4.5H0V15.1875C0 16.7408 1.27918 18 2.85714 18H13.1429C14.7208 18 16 16.7408 16 15.1875V4.5H12.5714ZM8 1.6875C9.57543 1.6875 10.8571 2.94919 10.8571 4.5H5.14286C5.14286 2.94919 6.42457 1.6875 8 1.6875ZM14.2857 15.1875C14.2857 15.8078 13.773 16.3125 13.1429 16.3125H2.85714C2.22696 16.3125 1.71429 15.8078 1.71429 15.1875V6.1875H3.42857V7.59375C3.42857 8.05975 3.81232 8.4375 4.28571 8.4375C4.75911 8.4375 5.14286 8.05975 5.14286 7.59375V6.1875H10.8571V7.59375C10.8571 8.05975 11.2409 8.4375 11.7143 8.4375C12.1877 8.4375 12.5714 8.05975 12.5714 7.59375V6.1875H14.2857V15.1875Z" fill="black" fill-opacity="0.91"/>
</svg>
