<svg width="15" height="18" viewBox="0 0 15 18" fill="none" xmlns="http://www.w3.org/2000/svg">
<path d="M7.5 9C9.86719 9 11.7857 6.98555 11.7857 4.5C11.7857 2.01445 9.86719 0 7.5 0C5.13281 0 3.21429 2.01445 3.21429 4.5C3.21429 6.98555 5.13281 9 7.5 9ZM10.5 10.125H9.94085C9.19754 10.4836 8.37054 10.6875 7.5 10.6875C6.62946 10.6875 5.8058 10.4836 5.05915 10.125H4.5C2.01562 10.125 0 12.2414 0 14.85V16.3125C0 17.2441 0.719866 18 1.60714 18H13.3929C14.2801 18 15 17.2441 15 16.3125V14.85C15 12.2414 12.9844 10.125 10.5 10.125Z" fill="black" fill-opacity="0.91"/>
</svg>
